<svg width="24" height="24" viewBox="0 0 24 24" fill="none" xmlns="http://www.w3.org/2000/svg">
<path d="M19.6509 24C19.6424 24 19.6339 24 19.6254 24C15.5261 23.8658 10.7237 19.8922 7.41493 16.5813C4.10186 13.2703 0.1283 8.46584 0.000464862 4.38576C-0.0464079 2.954 3.46694 0.407938 3.50316 0.382371C4.41505 -0.252546 5.42709 -0.0267034 5.84255 0.548557C6.12379 0.938455 8.78703 4.9738 9.07679 5.43188C9.37721 5.907 9.33246 6.61436 8.95748 7.32384C8.75081 7.71801 8.06476 8.92392 7.74304 9.4864C8.09033 9.98069 9.00861 11.193 10.9048 13.0892C12.8032 14.9855 14.0134 15.9059 14.5098 16.2532C15.0723 15.9314 16.2782 15.2454 16.6724 15.0387C17.3712 14.668 18.0743 14.6211 18.5537 14.9151C19.0437 15.2156 23.0684 17.8916 23.4391 18.1494C23.7502 18.3688 23.9505 18.7438 23.9909 19.1806C24.0293 19.6216 23.8929 20.0882 23.6096 20.4952C23.5861 20.5293 21.0699 24 19.6509 24Z" fill="#FF5B49"/>
</svg>
