<svg width="22" height="24" viewBox="0 0 22 24" fill="none" xmlns="http://www.w3.org/2000/svg">
<path d="M11 0C7.21253 0 4.14281 3.06971 4.14281 6.85714C4.14281 10.1006 7.14876 14.5619 9.18076 17.2054C10.1019 18.4042 11.8992 18.4042 12.8192 17.2054C14.8512 14.5619 17.8571 10.1006 17.8571 6.85714C17.8571 3.06971 14.7874 0 11 0ZM11 4.40848C12.3531 4.40848 13.4486 5.504 13.4486 6.85714C13.4486 8.20914 12.352 9.3058 11 9.3058C9.64795 9.3058 8.55129 8.21029 8.55129 6.85714C8.55129 5.504 9.64681 4.40848 11 4.40848ZM4.31915 16C3.38429 16 2.54381 16.5701 2.19638 17.4375L0.825848 20.8661C0.225848 22.3678 1.32924 24 2.94638 24H19.0535C20.6707 24 21.7741 22.3678 21.1741 20.8661L19.8035 17.4375C19.4561 16.5701 18.6156 16 17.6808 16H16.7142C16.0834 16 15.5714 16.512 15.5714 17.1429C15.5714 17.7737 16.0834 18.2857 16.7142 18.2857H17.683L18.741 20.9308C18.8907 21.3068 18.6143 21.7143 18.2098 21.7143H3.79013C3.38556 21.7143 3.11026 21.3068 3.26112 20.9308L4.31692 18.2857H5.28567C5.91653 18.2857 6.42853 17.7737 6.42853 17.1429C6.42853 16.512 5.91653 16 5.28567 16H4.31915Z" fill="#FF5B49"/>
</svg>
