<svg width="133" height="19" viewBox="0 0 133 19" fill="none" xmlns="http://www.w3.org/2000/svg">
<path d="M6.428 18.312C5.508 18.312 4.624 18.168 3.776 17.88C2.928 17.592 2.188 17.18 1.556 16.644C0.924 16.1 0.472 15.456 0.2 14.712L2.54 13.836C2.676 14.22 2.936 14.564 3.32 14.868C3.712 15.164 4.176 15.396 4.712 15.564C5.256 15.732 5.828 15.816 6.428 15.816C7.068 15.816 7.668 15.712 8.228 15.504C8.796 15.296 9.252 15.008 9.596 14.64C9.948 14.272 10.124 13.84 10.124 13.344C10.124 12.832 9.94 12.412 9.572 12.084C9.212 11.756 8.748 11.496 8.18 11.304C7.62 11.112 7.036 10.968 6.428 10.872C5.252 10.68 4.196 10.4 3.26 10.032C2.332 9.664 1.596 9.148 1.052 8.484C0.516 7.82 0.248 6.956 0.248 5.892C0.248 4.892 0.532 4.02 1.1 3.276C1.676 2.532 2.432 1.956 3.368 1.548C4.312 1.132 5.332 0.923999 6.428 0.923999C7.332 0.923999 8.204 1.068 9.044 1.356C9.892 1.636 10.636 2.048 11.276 2.592C11.924 3.128 12.388 3.78 12.668 4.548L10.304 5.4C10.168 5.008 9.908 4.668 9.524 4.38C9.14 4.084 8.676 3.852 8.132 3.684C7.596 3.516 7.028 3.432 6.428 3.432C5.788 3.424 5.188 3.528 4.628 3.744C4.076 3.952 3.624 4.24 3.272 4.608C2.92 4.976 2.744 5.404 2.744 5.892C2.744 6.492 2.908 6.948 3.236 7.26C3.564 7.572 4.004 7.804 4.556 7.956C5.116 8.1 5.74 8.232 6.428 8.352C7.532 8.528 8.552 8.82 9.488 9.228C10.432 9.636 11.188 10.18 11.756 10.86C12.332 11.532 12.62 12.36 12.62 13.344C12.62 14.336 12.332 15.208 11.756 15.96C11.188 16.704 10.432 17.284 9.488 17.7C8.552 18.108 7.532 18.312 6.428 18.312ZM22.8307 14.592L25.0627 15.804C24.5187 16.564 23.8267 17.172 22.9867 17.628C22.1547 18.084 21.2507 18.312 20.2747 18.312C19.1707 18.312 18.1627 18.028 17.2507 17.46C16.3467 16.892 15.6227 16.132 15.0787 15.18C14.5427 14.22 14.2747 13.16 14.2747 12C14.2747 11.12 14.4307 10.3 14.7427 9.54C15.0547 8.772 15.4827 8.1 16.0267 7.524C16.5787 6.94 17.2187 6.484 17.9467 6.156C18.6747 5.828 19.4507 5.664 20.2747 5.664C21.2507 5.664 22.1547 5.892 22.9867 6.348C23.8267 6.804 24.5187 7.416 25.0627 8.184L22.8307 9.396C22.4947 8.996 22.1027 8.692 21.6547 8.484C21.2067 8.268 20.7467 8.16 20.2747 8.16C19.6187 8.16 19.0227 8.34 18.4867 8.7C17.9587 9.052 17.5387 9.52 17.2267 10.104C16.9227 10.68 16.7707 11.312 16.7707 12C16.7707 12.68 16.9267 13.312 17.2387 13.896C17.5507 14.472 17.9707 14.936 18.4987 15.288C19.0347 15.64 19.6267 15.816 20.2747 15.816C20.7707 15.816 21.2427 15.704 21.6907 15.48C22.1387 15.256 22.5187 14.96 22.8307 14.592ZM32.2044 18.312C31.1004 18.312 30.0924 18.028 29.1804 17.46C28.2764 16.892 27.5524 16.132 27.0084 15.18C26.4724 14.22 26.2044 13.16 26.2044 12C26.2044 11.12 26.3604 10.3 26.6724 9.54C26.9844 8.772 27.4124 8.1 27.9564 7.524C28.5084 6.94 29.1484 6.484 29.8764 6.156C30.6044 5.828 31.3804 5.664 32.2044 5.664C33.3084 5.664 34.3124 5.948 35.2164 6.516C36.1284 7.084 36.8524 7.848 37.3884 8.808C37.9324 9.768 38.2044 10.832 38.2044 12C38.2044 12.872 38.0484 13.688 37.7364 14.448C37.4244 15.208 36.9924 15.88 36.4404 16.464C35.8964 17.04 35.2604 17.492 34.5324 17.82C33.8124 18.148 33.0364 18.312 32.2044 18.312ZM32.2044 15.816C32.8684 15.816 33.4644 15.64 33.9924 15.288C34.5204 14.936 34.9364 14.472 35.2404 13.896C35.5524 13.312 35.7084 12.68 35.7084 12C35.7084 11.304 35.5484 10.664 35.2284 10.08C34.9164 9.496 34.4964 9.032 33.9684 8.688C33.4404 8.336 32.8524 8.16 32.2044 8.16C31.5484 8.16 30.9524 8.336 30.4164 8.688C29.8884 9.04 29.4684 9.508 29.1564 10.092C28.8524 10.676 28.7004 11.312 28.7004 12C28.7004 12.712 28.8604 13.356 29.1804 13.932C29.5004 14.508 29.9244 14.968 30.4524 15.312C30.9884 15.648 31.5724 15.816 32.2044 15.816ZM40.1431 18V6H42.6391V7.272C43.0551 6.776 43.5671 6.384 44.1751 6.096C44.7831 5.808 45.4391 5.664 46.1431 5.664C46.5911 5.664 47.0351 5.724 47.4751 5.844L46.4791 8.364C46.1671 8.244 45.8551 8.184 45.5431 8.184C45.0151 8.184 44.5311 8.316 44.0911 8.58C43.6511 8.836 43.2991 9.184 43.0351 9.624C42.7711 10.064 42.6391 10.552 42.6391 11.088V18H40.1431ZM53.5794 18.312C52.4754 18.312 51.4674 18.028 50.5554 17.46C49.6514 16.892 48.9274 16.132 48.3834 15.18C47.8474 14.22 47.5794 13.16 47.5794 12C47.5794 11.12 47.7354 10.3 48.0474 9.54C48.3594 8.772 48.7874 8.1 49.3314 7.524C49.8834 6.94 50.5234 6.484 51.2514 6.156C51.9794 5.828 52.7554 5.664 53.5794 5.664C54.4994 5.664 55.3434 5.856 56.1114 6.24C56.8794 6.616 57.5354 7.14 58.0794 7.812C58.6234 8.476 59.0234 9.244 59.2794 10.116C59.5354 10.98 59.6114 11.9 59.5074 12.876H50.2554C50.3594 13.428 50.5594 13.928 50.8554 14.376C51.1594 14.816 51.5434 15.164 52.0074 15.42C52.4794 15.676 53.0034 15.808 53.5794 15.816C54.1874 15.816 54.7394 15.664 55.2354 15.36C55.7394 15.056 56.1514 14.636 56.4714 14.1L59.0034 14.688C58.5234 15.752 57.7994 16.624 56.8314 17.304C55.8634 17.976 54.7794 18.312 53.5794 18.312ZM50.1714 10.968H56.9874C56.9074 10.392 56.7034 9.872 56.3754 9.408C56.0554 8.936 55.6514 8.564 55.1634 8.292C54.6834 8.012 54.1554 7.872 53.5794 7.872C53.0114 7.872 52.4834 8.008 51.9954 8.28C51.5154 8.552 51.1154 8.924 50.7954 9.396C50.4834 9.86 50.2754 10.384 50.1714 10.968Z" fill="#22B3C1"/>
<path d="M72.6558 1.2V3.696H67.3038V18H64.8078V3.696H59.4678V1.2H72.6558ZM73.8697 6H76.3657V18H73.8697V6ZM75.1417 4.26C74.7577 4.26 74.4377 4.136 74.1817 3.888C73.9257 3.64 73.7977 3.328 73.7977 2.952C73.7977 2.584 73.9257 2.276 74.1817 2.028C74.4377 1.772 74.7537 1.644 75.1297 1.644C75.4977 1.644 75.8097 1.772 76.0657 2.028C76.3217 2.276 76.4497 2.584 76.4497 2.952C76.4497 3.328 76.3217 3.64 76.0657 3.888C75.8177 4.136 75.5097 4.26 75.1417 4.26ZM86.8619 14.592L89.0939 15.804C88.5499 16.564 87.8579 17.172 87.0179 17.628C86.1859 18.084 85.2819 18.312 84.3059 18.312C83.2019 18.312 82.1939 18.028 81.2819 17.46C80.3779 16.892 79.6539 16.132 79.1099 15.18C78.5739 14.22 78.3059 13.16 78.3059 12C78.3059 11.12 78.4619 10.3 78.7739 9.54C79.0859 8.772 79.5139 8.1 80.0579 7.524C80.6099 6.94 81.2499 6.484 81.9779 6.156C82.7059 5.828 83.4819 5.664 84.3059 5.664C85.2819 5.664 86.1859 5.892 87.0179 6.348C87.8579 6.804 88.5499 7.416 89.0939 8.184L86.8619 9.396C86.5259 8.996 86.1339 8.692 85.6859 8.484C85.2379 8.268 84.7779 8.16 84.3059 8.16C83.6499 8.16 83.0539 8.34 82.5179 8.7C81.9899 9.052 81.5699 9.52 81.2579 10.104C80.9539 10.68 80.8019 11.312 80.8019 12C80.8019 12.68 80.9579 13.312 81.2699 13.896C81.5819 14.472 82.0019 14.936 82.5299 15.288C83.0659 15.64 83.6579 15.816 84.3059 15.816C84.8019 15.816 85.2739 15.704 85.7219 15.48C86.1699 15.256 86.5499 14.96 86.8619 14.592ZM101.216 18H98.3356L95.3836 12.912L93.4516 15.216V18H90.9556V-1.43051e-06H93.4516V11.34L97.9156 6H101.18L97.0876 10.884L101.216 18ZM107.72 18.312C106.616 18.312 105.608 18.028 104.696 17.46C103.792 16.892 103.068 16.132 102.524 15.18C101.988 14.22 101.72 13.16 101.72 12C101.72 11.12 101.876 10.3 102.188 9.54C102.5 8.772 102.928 8.1 103.472 7.524C104.024 6.94 104.664 6.484 105.392 6.156C106.12 5.828 106.896 5.664 107.72 5.664C108.64 5.664 109.484 5.856 110.252 6.24C111.02 6.616 111.676 7.14 112.22 7.812C112.764 8.476 113.164 9.244 113.42 10.116C113.676 10.98 113.752 11.9 113.648 12.876H104.396C104.5 13.428 104.7 13.928 104.996 14.376C105.3 14.816 105.684 15.164 106.148 15.42C106.62 15.676 107.144 15.808 107.72 15.816C108.328 15.816 108.88 15.664 109.376 15.36C109.88 15.056 110.292 14.636 110.612 14.1L113.144 14.688C112.664 15.752 111.94 16.624 110.972 17.304C110.004 17.976 108.92 18.312 107.72 18.312ZM104.312 10.968H111.128C111.048 10.392 110.844 9.872 110.516 9.408C110.196 8.936 109.792 8.564 109.304 8.292C108.824 8.012 108.296 7.872 107.72 7.872C107.152 7.872 106.624 8.008 106.136 8.28C105.656 8.552 105.256 8.924 104.936 9.396C104.624 9.86 104.416 10.384 104.312 10.968ZM121.901 8.496H119.381L119.369 18H116.873L116.885 8.496H114.977V6H116.885L116.873 2.232H119.369L119.381 6H121.901V8.496ZM127.485 18.228C126.853 18.188 126.237 18.06 125.637 17.844C125.037 17.628 124.509 17.336 124.053 16.968C123.605 16.592 123.269 16.152 123.045 15.648L125.169 14.736C125.273 14.952 125.453 15.164 125.709 15.372C125.973 15.58 126.281 15.752 126.633 15.888C126.985 16.016 127.353 16.08 127.737 16.08C128.113 16.08 128.461 16.028 128.781 15.924C129.109 15.812 129.377 15.644 129.585 15.42C129.793 15.196 129.897 14.928 129.897 14.616C129.897 14.264 129.777 13.992 129.537 13.8C129.305 13.6 129.013 13.448 128.661 13.344C128.309 13.24 127.957 13.14 127.605 13.044C126.821 12.868 126.101 12.628 125.445 12.324C124.797 12.012 124.281 11.616 123.897 11.136C123.513 10.648 123.321 10.052 123.321 9.348C123.321 8.58 123.529 7.916 123.945 7.356C124.361 6.788 124.905 6.352 125.577 6.048C126.257 5.744 126.981 5.592 127.749 5.592C128.709 5.592 129.589 5.796 130.389 6.204C131.189 6.612 131.801 7.172 132.225 7.884L130.245 9.06C130.125 8.82 129.945 8.604 129.705 8.412C129.465 8.22 129.193 8.068 128.889 7.956C128.585 7.836 128.269 7.768 127.941 7.752C127.533 7.736 127.153 7.784 126.801 7.896C126.457 8 126.181 8.168 125.973 8.4C125.765 8.632 125.661 8.928 125.661 9.288C125.661 9.64 125.785 9.904 126.033 10.08C126.281 10.248 126.593 10.384 126.969 10.488C127.353 10.592 127.745 10.708 128.145 10.836C128.857 11.06 129.525 11.336 130.149 11.664C130.773 11.984 131.277 12.38 131.661 12.852C132.045 13.324 132.229 13.9 132.213 14.58C132.213 15.332 131.985 15.992 131.529 16.56C131.081 17.128 130.497 17.56 129.777 17.856C129.057 18.152 128.293 18.276 127.485 18.228Z" fill="white"/>
</svg>
