<?xml version="1.0" encoding="utf-8"?>
<!-- Svg Vector Icons : http://www.onlinewebfonts.com/icon -->
<!DOCTYPE svg PUBLIC "-//W3C//DTD SVG 1.1//EN" "http://www.w3.org/Graphics/SVG/1.1/DTD/svg11.dtd">
<svg version="1.1" xmlns="http://www.w3.org/2000/svg" xmlns:xlink="http://www.w3.org/1999/xlink" x="0px" y="0px" viewBox="0 0 256 256" enable-background="new 0 0 256 256" xml:space="preserve">
<metadata> Svg Vector Icons : http://www.onlinewebfonts.com/icon </metadata>
<g><g><g><path fill="#000000" d="M120,10.5c-12.9,1.1-20.6,4.9-24.4,12c-0.9,1.7-1.7,2.5-3.3,3c-4.4,1.5-8,6.9-9.6,14.3c-0.6,3-0.9,6.5-0.8,12.3v8.2l-2.6,0.9c-3,1.1-4.9,3.7-5.8,8.3c-1.5,8,3.4,18.4,9.4,20c1.7,0.4,2.2,0.8,2.4,2c2.7,13.8,11.6,27.9,22.9,36.4c6.6,5,14,8,19.6,8c4.9,0,11.3-2.4,17.6-6.6c11.1-7.4,21.4-22.4,24.4-35.6c0.8-3.6,0.9-3.7,3-4.2c2.6-0.7,6-4.1,7.5-7.6c3.7-8.2,2.3-17.7-3.2-20.4c-1.2-0.6-2.4-1.1-2.7-1.1c-0.4,0-0.6-3.2-0.8-8.9c-0.3-9.9-1.4-15.4-4.1-21.9c-1.4-3.3-2.3-4.5-5.3-7.4c-6.5-6.2-17.8-10.7-30-11.9C128.3,9.8,127.4,9.8,120,10.5z"/><path fill="#000000" d="M87.4,138.2c-3.4,2.1-12,5.6-22.7,9.4c-13.9,4.9-20.4,8-24.7,11.9c-8.3,7.5-12.5,16.6-15.7,34.2c-3.7,19.7,0,28,15.8,35.7c37.3,18,102.4,21.9,150.9,9c15.1-4,29-10,34.2-14.8c6.8-6.2,8.9-12.9,7.5-23.3c-3-21.2-7.5-32.2-16.7-40.7c-4-3.7-10.8-7.1-21.9-11c-10.9-3.7-16.6-6-22.4-8.9c-2.7-1.3-5.2-2.5-5.4-2.6c-0.2-0.1-0.9,1-1.7,2.4c-3.8,7.5-14.9,19.1-24.3,25.4c-6.3,4.2-9.8,5.5-13.6,5.2c-8.8-0.9-28-17.1-35-29.7c-1.1-1.9-2.1-3.4-2.3-3.4C89.3,137.1,88.4,137.5,87.4,138.2z"/></g></g></g>
</svg>